<svg width="480" height="297" aria-describedby="tile-plane-desc" aria-labelledby="tile-plane-title" role="img" viewBox="0 0 480 297" style="max-width: 30rem">
 <title id="tile-plane-title">Tile plane diagram</title>
 <desc id="tile-plane-desc">Diagram showing the coordinate system and the relationship between the tile plane and the viewport</desc>
 <defs>
  <clipPath id="clipPath1848">
   <path d="m40.6 18.5v254h438v-254zm57.9 35.7h321v185h-321z"/>
  </clipPath>
  <clipPath id="clipPath1852">
   <path d="m98.5 54.2h321v185h-321z"/>
  </clipPath>
 </defs>
 <g clip-path="url(#clipPath1848)">
  <path d="m87.6 24.8-42.8 24.3 42.8 24.3v0.0014l-42.8 24.3 42.8 24.3-42.8 24.3 42.8 24.3-42.8 24.3 42.8 24.3-42.8 24.3 42.8 24.3 42.8-24.3 42.8 24.3 42.8-24.3 42.8 24.3 42.8-24.3 42.8 24.3 42.8-24.3 42.8 24.3 42.8-24.3-42.8-24.3 42.8-24.3-42.8-24.3 42.8-24.3-42.8-24.3 42.8-24.3-42.8-24.3 42.8-24.3-42.8-24.3-42.8 24.3-42.8-24.3-42.8 24.3-42.8-24.3-42.8 24.3-42.8-24.3-42.8 24.3-42.8-24.3" fill="var(--color-base)" fill-opacity=".15"/>
  <g fill="none" stroke="currentColor" stroke-dasharray="6, 2" stroke-width="1.5">
   <path d="m173 220-42.8 24.3 42.8 24.3 42.8-24.3-42.8-24.3"/>
   <path d="m259 220-42.8 24.3 42.8 24.3 42.8-24.3-42.8-24.3"/>
   <path d="m345 220-42.8 24.3 42.8 24.3 42.8-24.3-42.8-24.3m-257-48.7-42.8 24.3 42.8 24.3 42.8-24.3-42.8-24.3"/>
   <path d="m87.6 220-42.8 24.3 42.8 24.3 42.8-24.3-42.8-24.3m343 0-42.8 24.3 42.8 24.3 42.8-24.3-42.8-24.3"/>
   <path d="m430 171-42.8 24.3 42.8 24.3 42.8-24.3-42.8-24.3m0-48.7-42.8 24.3 42.8 24.3 42.8-24.3-42.8-24.3"/>
   <path d="m430 73.5-42.8 24.3 42.8 24.3 42.8-24.3-42.8-24.3m-343 0-42.8 24.3 42.8 24.3 42.8-24.3-42.8-24.3"/>
   <path d="m87.6 122-42.8 24.3 42.8 24.3 42.8-24.3-42.8-24.3m0-97.4-42.8 24.3 42.8 24.3 42.8-24.3-42.8-24.3m85.7 0-42.8 24.3 42.8 24.3 42.8-24.3-42.8-24.3"/>
   <path d="m259 24.8-42.8 24.3 42.8 24.3 42.8-24.3-42.8-24.3"/>
   <path d="m345 24.8-42.8 24.3 42.8 24.3 42.8-24.3-42.8-24.3m85.7 6.8e-4 -42.8 24.3 42.8 24.3 42.8-24.3-42.8-24.3"/>
  </g>
 </g>
 <g clip-path="url(#clipPath1852)">
  <path d="m87.6 24.8-42.8 24.3 42.8 24.3v0.0014l-42.8 24.3 42.8 24.3-42.8 24.3 42.8 24.3-42.8 24.3 42.8 24.3-42.8 24.3 42.8 24.3 42.8-24.3 42.8 24.3 42.8-24.3 42.8 24.3 42.8-24.3 42.8 24.3 42.8-24.3 42.8 24.3 42.8-24.3-42.8-24.3 42.8-24.3-42.8-24.3 42.8-24.3-42.8-24.3 42.8-24.3-42.8-24.3 42.8-24.3-42.8-24.3-42.8 24.3-42.8-24.3-42.8 24.3-42.8-24.3-42.8 24.3-42.8-24.3-42.8 24.3-42.8-24.3" fill="var(--color-base)" fill-opacity=".5"/>
  <g fill="none" stroke="currentColor" stroke-width="1">
   <path d="m173 220-42.8 24.3 42.8 24.3 42.8-24.3-42.8-24.3"/>
   <path d="m216 244-42.8-24.3 42.8-24.3 42.8 24.3-42.8 24.3"/>
   <path d="m259 220-42.8 24.3 42.8 24.3 42.8-24.3-42.8-24.3m42.8-24.3-42.8 24.3 42.8 24.3 42.8-24.3-42.8-24.3"/>
   <path d="m345 220-42.8 24.3 42.8 24.3 42.8-24.3-42.8-24.3m-129-73-42.8 24.3 42.8 24.3 42.8-24.3-42.8-24.3m42.8 24.3-42.8 24.3 42.8 24.3 42.8-24.3-42.8-24.3"/>
   <path d="m302 147-42.8 24.3 42.8 24.3 42.8-24.3-42.8-24.3m42.8 24.3-42.8 24.3 42.8 24.3 42.8-24.3-42.8-24.3m-214-24.3-42.8 24.3 42.8 24.3 42.8-24.3-42.8-24.3m42.8 24.3-42.8 24.3 42.8 24.3 42.8-24.3-42.8-24.3m-85.7 0-42.8 24.3 42.8 24.3 42.8-24.3-42.8-24.3"/>
   <path d="m130 195-42.8 24.3 42.8 24.3 42.8-24.3-42.8-24.3m-42.8 24.3-42.8 24.3 42.8 24.3 42.8-24.3-42.8-24.3m343 0-42.8 24.3 42.8 24.3 42.8-24.3-42.8-24.3"/>
   <path d="m430 171-42.8 24.3 42.8 24.3 42.8-24.3-42.8-24.3m-42.8-24.3-42.8 24.3 42.8 24.3 42.8-24.3-42.8-24.3m-42.8-24.3-42.8 24.3 42.8 24.3 42.8-24.3-42.8-24.3"/>
   <path d="m345 73.5-42.8 24.3 42.8 24.3 42.8-24.3-42.8-24.3m85.7 48.7-42.8 24.3 42.8 24.3 42.8-24.3-42.8-24.3"/>
   <path d="m430 73.5-42.8 24.3 42.8 24.3 42.8-24.3-42.8-24.3m-42.8-24.3-42.8 24.3 42.8 24.3 42.8-24.3-42.8-24.3m-214 73-42.8 24.3 42.8 24.3 42.8-24.3-42.8-24.3"/>
   <path d="m173 73.5-42.8 24.3 42.8 24.3 42.8-24.3-42.8-24.3m85.7 48.7-42.8 24.3 42.8 24.3 42.8-24.3-42.8-24.3"/>
   <path d="m259 73.5-42.8 24.3 42.8 24.3 42.8-24.3-42.8-24.3m-42.8-24.3-42.8 24.3 42.8 24.3 42.8-24.3-42.8-24.3"/>
   <path d="m302 97.9-42.8 24.3 42.8 24.3 42.8-24.3-42.8-24.3m-171 0-42.8 24.3 42.8 24.3 42.8-24.3-42.8-24.3"/>
   <path d="m87.6 73.5-42.8 24.3 42.8 24.3 42.8-24.3-42.8-24.3"/>
   <path d="m87.6 122-42.8 24.3 42.8 24.3 42.8-24.3-42.8-24.3m42.8-73-42.8 24.3 42.8 24.3 42.8-24.3-42.8-24.3m-42.8-24.3-42.8 24.3 42.8 24.3 42.8-24.3-42.8-24.3"/>
   <path d="m173 24.8-42.8 24.3 42.8 24.3 42.8-24.3-42.8-24.3m129 24.3-42.8 24.3 42.8 24.3 42.8-24.3-42.8-24.3"/>
   <path d="m259 24.8-42.8 24.3 42.8 24.3 42.8-24.3-42.8-24.3"/>
   <path d="m345 24.8-42.8 24.3 42.8 24.3 42.8-24.3-42.8-24.3m85.7 6.8e-4 -42.8 24.3 42.8 24.3 42.8-24.3-42.8-24.3m-214 73-42.8 24.3 42.8 24.3 42.8-24.3-42.8-24.3m171 97.4-42.8 24.3 42.8 24.3 42.8-24.3-42.8-24.3m0-97.4-42.8 24.3 42.8 24.3 42.8-24.3-42.8-24.3"/>
  </g>
 </g>
 <path d="m98.5 54.2v185h321v-185z" fill="none" stroke="currentColor" stroke-width="2"/>
 <g class="body-font" font-size="12px">
  <g text-anchor="middle">
   <text x="87.287987" y="11.201637"><tspan x="87.287987" y="11.201637">col -4</tspan></text>
   <text x="260.86108" y="11.201637"><tspan x="260.86108" y="11.201637">col 0</tspan></text>
   <text x="345.26511" y="11.201637"><tspan x="345.26511" y="11.201637">col 2</tspan></text>
   <text x="131.53188" y="11.201637"><tspan x="131.53188" y="11.201637">col -3</tspan></text>
   <text x="173.73389" y="11.201637"><tspan x="173.73389" y="11.201637">col -2</tspan></text>
   <text x="217.97845" y="11.201637"><tspan x="217.97845" y="11.201637">col -1</tspan></text>
   <text x="303.74374" y="11.201637"><tspan x="303.74374" y="11.201637">col 1</tspan></text>
   <text x="388.8284" y="11.201637"><tspan x="388.8284" y="11.201637">col 3</tspan></text>
   <text x="430.34976" y="11.201637"><tspan x="430.34976" y="11.201637">col 4</tspan></text>
  </g>
  <g class="body-font" text-anchor="end">
   <text x="32.160938" y="247.373"><tspan x="32.160938" y="247.373">row -4</tspan></text>
   <text x="32.160938" y="223.01608"><tspan x="32.160938" y="223.01608">row -3</tspan></text>
   <text x="32.160938" y="198.58778"><tspan x="32.160938" y="198.58778">row -2</tspan></text>
   <text x="32.160938" y="174.08809"><tspan x="32.160938" y="174.08809">row -1</tspan></text>
   <text x="32.160938" y="149.73184"><tspan x="32.160938" y="149.73184">row -0</tspan></text>
   <text x="32.160938" y="125.30354"><tspan x="32.160938" y="125.30354">row 1</tspan></text>
   <text x="32.160938" y="100.87522"><tspan x="32.160938" y="100.87522">row 2</tspan></text>
   <text x="32.160938" y="76.446915"><tspan x="32.160938" y="76.446915">row 3</tspan></text>
   <text x="32.160938" y="52.018608"><tspan x="32.160938" y="52.018608">row 4</tspan></text>
  </g>
  <path d="m420 275 12-30.4m-104 31.2v-37.1" fill="none" stroke="currentColor"/>
  <text class="body-font" x="327.539" y="291.6434" font-size="14px" text-anchor="middle">viewport</text>
  <text class="body-font" x="417.12827" y="291.6434" font-size="14px" text-anchor="middle">tile plane</text>
 </g>
</svg>
