<svg width="720" height="445" viewBox="0 0 720 445">
  <defs>
    <clipPath id="b">
      <path d="M72.76 32.138v373.48h643.47V32.138zm85.187 52.477h472.15v271.71h-472.15z"/>
    </clipPath>
    <clipPath id="d">
      <path d="M157.95 84.615H630.1v271.71H157.95z"/>
    </clipPath>
  </defs>
  <g clip-path="url(#b)">
    <path fill="var(--color-base)" fill-opacity=".25" d="M141.97 41.479l-31.506 17.9-31.506 17.898 63.012 35.797v.002l-31.506 17.898-31.506 17.9 63.012 35.797-31.506 17.898-31.506 17.9 63.012 35.797-63.012 35.797 31.506 17.9 31.506 17.898-63.012 35.797 31.506 17.9 31.506 17.898 31.506-17.898 31.506-17.9 31.506 17.9 31.506 17.898 31.506-17.898 31.506-17.9 31.506 17.9 31.506 17.898 31.506-17.898 31.506-17.9 31.506 17.9 31.506 17.898 31.506-17.898 31.506-17.9 31.506 17.9 31.506 17.898 31.506-17.898 31.506-17.9-63.012-35.797 31.506-17.898 31.506-17.9-63.012-35.797 31.506-17.898 31.506-17.9-63.012-35.797 31.506-17.898 31.506-17.9-63.012-35.797 31.506-17.898 31.506-17.9-63.012-35.797-63.012 35.797-31.506-17.898-31.506-17.9-31.506 17.9-31.506 17.898-31.506-17.898-31.506-17.9-31.506 17.9-31.506 17.898L299.5 59.38l-31.506-17.9-31.506 17.9-31.506 17.898-31.506-17.898z" />
    <g fill="none" stroke="currentColor" stroke-dasharray="8, 2" stroke-width="2">
      <path d="M268 327.86l-63.012 35.797 31.506 17.9L268 399.455l31.506-17.898 31.506-17.9-31.506-17.898z"/>
      <path d="M394.02 327.86l-63.012 35.797 31.506 17.9 31.506 17.898 31.506-17.898 31.506-17.9-31.506-17.898z"/>
      <path d="M520.04 327.86l-63.012 35.797 31.506 17.9 31.506 17.898 31.506-17.898 31.506-17.9-31.506-17.898zM141.97 256.27l-63.012 35.797 31.506 17.9 31.506 17.898 31.506-17.898 31.506-17.9-31.506-17.898z"/>
      <path d="M141.97 327.86l-63.012 35.797 31.506 17.9 31.506 17.898 31.506-17.898 31.506-17.9-31.506-17.898zM646.07 327.86l-63.012 35.797 31.506 17.9 31.506 17.898 31.506-17.898 31.506-17.9-31.506-17.898z"/>
      <path d="M646.07 256.27l-63.012 35.797 31.506 17.9 31.506 17.898 31.506-17.898 31.506-17.9-31.506-17.898zM646.07 184.67l-63.012 35.797 31.506 17.9 31.506 17.898 31.506-17.898 31.506-17.9-31.506-17.898z"/>
      <path d="M646.07 113.08l-63.012 35.797 31.506 17.9 31.506 17.898 31.506-17.898 31.506-17.9-31.506-17.898zM141.97 113.08l-31.506 17.898-31.506 17.9 63.012 35.797 63.012-35.797-31.506-17.9z"/>
      <path d="M141.97 184.67l-31.506 17.898-31.506 17.9 63.012 35.797 63.012-35.797-31.506-17.9zM141.97 41.479l-31.506 17.9-31.506 17.898 63.012 35.797 63.012-35.797-31.506-17.898zM268 41.479l-31.506 17.9-31.506 17.898L268 113.074l63.012-35.797-31.506-17.898z"/>
      <path d="M394.02 41.479l-31.506 17.9-31.506 17.898 63.012 35.797 63.012-35.797-31.506-17.898z"/>
      <path d="M520.04 41.479l-31.506 17.9-31.506 17.898 63.012 35.797 63.012-35.797-31.506-17.898zM646.07 41.48l-63.012 35.797 31.506 17.9 31.506 17.898 31.506-17.898 31.506-17.9-31.506-17.898z"/>
    </g>
  </g>
  <g clip-path="url(#d)">
    <path d="M141.97 41.479l-31.506 17.9-31.506 17.898 63.012 35.797v.002l-31.506 17.898-31.506 17.9 63.012 35.797-31.506 17.898-31.506 17.9 63.012 35.797-63.012 35.797 31.506 17.9 31.506 17.898-63.012 35.797 31.506 17.9 31.506 17.898 31.506-17.898 31.506-17.9 31.506 17.9 31.506 17.898 31.506-17.898 31.506-17.9 31.506 17.9 31.506 17.898 31.506-17.898 31.506-17.9 31.506 17.9 31.506 17.898 31.506-17.898 31.506-17.9 31.506 17.9 31.506 17.898 31.506-17.898 31.506-17.9-63.012-35.797 31.506-17.898 31.506-17.9-63.012-35.797 31.506-17.898 31.506-17.9-63.012-35.797 31.506-17.898 31.506-17.9-63.012-35.797 31.506-17.898 31.506-17.9-63.012-35.797-63.012 35.797-31.506-17.898-31.506-17.9-31.506 17.9-31.506 17.898-31.506-17.898-31.506-17.9-31.506 17.9-31.506 17.898L299.5 59.38l-31.506-17.9-31.506 17.9-31.506 17.898-31.506-17.898z" fill="var(--color-base)" fill-opacity=".5"/>
    <g fill="none" stroke="currentColor" stroke-width="2">
      <path d="M268 327.86l-63.012 35.797 31.506 17.9L268 399.455l31.506-17.898 31.506-17.9-31.506-17.898z"/>
      <path d="M331.01 363.66l-31.506-17.898-31.506-17.899 63.012-35.798 31.506 17.899 31.506 17.899-31.506 17.899-31.506 17.898"/>
      <path d="M394.02 327.86l-63.012 35.797 31.506 17.9 31.506 17.898 31.506-17.898 31.506-17.9-31.506-17.898zM457.03 292.06l-31.506 17.9-31.506 17.898 63.012 35.797 63.012-35.797-31.506-17.898z"/>
      <path d="M520.04 327.86l-63.012 35.797 31.506 17.9 31.506 17.898 31.506-17.898 31.506-17.9-31.506-17.898zM331.01 220.47l-31.506 17.9-31.506 17.898 63.012 35.797 63.012-35.797-31.506-17.898zM394.02 256.27l-63.012 35.797 31.506 17.9 31.506 17.898 31.506-17.898 31.506-17.9-31.506-17.898z"/>
      <path d="M457.03 220.47l-31.506 17.9-31.506 17.898 63.012 35.797 63.012-35.797-31.506-17.898zM520.04 256.27l-63.012 35.797 31.506 17.9 31.506 17.898 31.506-17.898 31.506-17.9-31.506-17.898zM204.99 220.47l-31.506 17.9-31.506 17.898 63.012 35.797 63.012-35.797-31.506-17.898zM268 256.27l-63.012 35.797 31.506 17.9L268 327.865l31.506-17.898 31.506-17.9-31.506-17.898zM141.97 256.27l-63.012 35.797 31.506 17.9 31.506 17.898 31.506-17.898 31.506-17.9-31.506-17.898z"/>
      <path d="M204.99 292.06l-31.506 17.898-31.506 17.9 63.012 35.797 63.012-35.797-31.506-17.9zM141.97 327.86l-63.012 35.797 31.506 17.9 31.506 17.898 31.506-17.898 31.506-17.9-31.506-17.898zM646.07 327.86l-63.012 35.797 31.506 17.9 31.506 17.898 31.506-17.898 31.506-17.9-31.506-17.898z"/>
      <path d="M646.07 256.27l-63.012 35.797 31.506 17.9 31.506 17.898 31.506-17.898 31.506-17.9-31.506-17.898zM583.06 220.47l-31.506 17.898-31.506 17.9 63.012 35.797 63.012-35.797-31.506-17.9zM520.04 184.67l-63.012 35.797 31.506 17.9 31.506 17.898 31.506-17.898 31.506-17.9-31.506-17.898z"/>
      <path d="M520.04 113.08l-63.012 35.797 31.506 17.9 31.506 17.898 31.506-17.898 31.506-17.9-31.506-17.898zM646.07 184.67l-63.012 35.797 31.506 17.9 31.506 17.898 31.506-17.898 31.506-17.9-31.506-17.898z"/>
      <path d="M646.07 113.08l-63.012 35.797 31.506 17.9 31.506 17.898 31.506-17.898 31.506-17.9-31.506-17.898zM583.06 77.277l-31.506 17.898-31.506 17.9 63.012 35.797 63.012-35.797-31.506-17.9zM268 184.67l-63.012 35.797 31.506 17.9L268 256.265l31.506-17.898 31.506-17.9-31.506-17.898z"/>
      <path d="M268 113.08l-63.012 35.797 31.506 17.9L268 184.675l31.506-17.898 31.506-17.9-31.506-17.898zM394.02 184.67l-63.012 35.797 31.506 17.9 31.506 17.898 31.506-17.898 31.506-17.9-31.506-17.898z"/>
      <path d="M394.02 113.08l-63.012 35.797 31.506 17.9 31.506 17.898 31.506-17.898 31.506-17.9-31.506-17.898zM331.01 77.277l-31.506 17.898-31.506 17.9 63.012 35.797 63.012-35.797-31.506-17.9z"/>
      <path d="M457.03 148.87l-31.506 17.9-31.506 17.898 63.012 35.797 63.012-35.797-31.506-17.898zM204.99 148.87l-31.506 17.9-31.506 17.898 63.012 35.797 63.012-35.797-31.506-17.898z"/>
      <path d="M141.97 113.08l-31.506 17.898-31.506 17.9 63.012 35.797 63.012-35.797-31.506-17.9z"/>
      <path d="M141.97 184.67l-31.506 17.898-31.506 17.9 63.012 35.797 63.012-35.797-31.506-17.9zM204.99 77.277l-31.506 17.898-31.506 17.9 63.012 35.797 63.012-35.797-31.506-17.9zM141.97 41.479l-31.506 17.9-31.506 17.898 63.012 35.797 63.012-35.797-31.506-17.898z"/>
      <path d="M268 41.479l-31.506 17.9-31.506 17.898L268 113.074l63.012-35.797-31.506-17.898zM457.03 77.277l-31.506 17.898-31.506 17.9 63.012 35.797 63.012-35.797-31.506-17.9z"/>
      <path d="M394.02 41.479l-31.506 17.9-31.506 17.898 63.012 35.797 63.012-35.797-31.506-17.898z"/>
      <path d="M520.04 41.479l-31.506 17.9-31.506 17.898 63.012 35.797 63.012-35.797-31.506-17.898zM646.07 41.48l-63.012 35.797 31.506 17.9 31.506 17.898 31.506-17.898 31.506-17.9-31.506-17.898zM331.01 148.87l-31.506 17.898-31.506 17.9 63.012 35.797 63.012-35.797-31.506-17.9zM583.06 292.06l-31.506 17.898-31.506 17.9 63.012 35.797 63.012-35.797-31.506-17.9zM583.06 148.87l-31.506 17.898-31.506 17.9 63.012 35.797 63.012-35.797-31.506-17.9z"/>
    </g>
  </g>
  <path d="M157.95 84.615v271.71H630.1V84.615z" fill="none" stroke="currentColor" stroke-width="3"/>
  <g class="body-font" font-size="var(--font-size-small)">
    <g text-anchor="middle">
      <text x="141.487" y="21.43">
        <tspan x="141.487" y="21.43">col -4</tspan>
      </text>
      <text x="396.763" y="21.43">
        <tspan x="396.763" y="21.43">col 0</tspan>
      </text>
      <text x="520.897" y="21.43">
        <tspan x="520.897" y="21.43">col 2</tspan>
      </text>
      <text x="206.557" y="21.43">
        <tspan x="206.557" y="21.43">col -3</tspan>
      </text>
      <text x="268.624" y="21.43">
        <tspan x="268.624" y="21.43">col -2</tspan>
      </text>
      <text x="333.695" y="21.43">
        <tspan x="333.695" y="21.43">col -1</tspan>
      </text>
      <text x="459.831" y="21.43">
        <tspan x="459.831" y="21.43">col 1</tspan>
      </text>
      <text x="584.966" y="21.43">
        <tspan x="584.966" y="21.43">col 3</tspan>
      </text>
      <text x="646.032" y="21.43">
        <tspan x="646.032" y="21.43">col 4</tspan>
      </text>
    </g>
    <g text-anchor="end">
      <text x="60.411" y="368.77">
        <tspan x="60.411" y="368.77">row -4</tspan>
      </text>
      <text x="60.411" y="332.948">
        <tspan x="60.411" y="332.948">row -3</tspan>
      </text>
      <text x="60.411" y="297.021">
        <tspan x="60.411" y="297.021">row -2</tspan>
      </text>
      <text x="60.411" y="260.989">
        <tspan x="60.411" y="260.989">row -1</tspan>
      </text>
      <text x="60.411" y="225.168">
        <tspan x="60.411" y="225.168">row -0</tspan>
      </text>
      <text x="60.411" y="189.241">
        <tspan x="60.411" y="189.241">row 1</tspan>
      </text>
      <text x="60.411" y="153.314">
        <tspan x="60.411" y="153.314">row 2</tspan>
      </text>
      <text x="60.411" y="117.387">
        <tspan x="60.411" y="117.387">row 3</tspan>
      </text>
      <text x="60.411" y="81.46">
        <tspan x="60.411" y="81.46">row 4</tspan>
      </text>
    </g>
  </g>
  <path d="M630.66 409.81l17.649-44.743M495.56 410.98v-54.51" fill="none" stroke="#000"/>
  <text x="449.928" y="433.879" class="body-font">
    <tspan x="449.928" y="433.879">viewport</tspan>
  </text>
  <text x="575.567" y="433.879" class="body-font">
    <tspan x="575.567" y="433.879">tile plane</tspan>
  </text>
</svg>
