<svg width="348" height="300" viewBox="0 0 348 300" style="max-width: 21.75rem">
 <defs>
  <marker id="TriangleOutM" overflow="visible" orient="auto">
   <path transform="scale(.4)" d="m5.77 0-8.65 5v-10z" fill-rule="evenodd" stroke="currentColor" stroke-width="1pt"/>
  </marker>
 </defs>
 <g fill="none" stroke="currentColor" stroke-dasharray="6, 2" stroke-width="1.5">
  <path d="m140.79 229.72 90.289 52.03"/>
  <path d="m140.79 281.75 90.289-52.034"/>
  <path d="m114.28 245 90.289 52.03"/>
  <path d="m167.31 214.35 90.289 52.03"/>
  <path d="m204.57 214.44-90.289 52.03"/>
  <path d="m257.75 244.96-90.289 52.03"/>
 </g>
 <circle cx="186.01" cy="255.73" r="2.4174"/>
 <g fill="var(--color-base)" fill-opacity=".25" stroke="currentColor" stroke-width="2">
  <path d="m159.35 235.87a17.774 17.601 0 0 1 0-30.486 53.323 52.803 0 0 1 53.323 0 17.774 17.601 0 0 1 0 30.486 53.323 52.803 0 0 1-53.323 0z"/>
  <path d="m132.04 215.71a35.981 35.912 0 0 1 0-62.201 107.95 107.74 0 0 1 107.95 0 35.981 35.912 0 0 1 0 62.201 107.95 107.74 0 0 1-107.95 0z"/>
  <path d="m104.73 200.06a54.19 54.223 0 0 1 0-93.916 162.57 162.67 0 0 1 162.57 0 54.19 54.223 0 0 1 0 93.916 162.57 162.67 0 0 1-162.57 0z"/>
  <path d="m84.237 184.94a67.85 67.956 0 0 1 0-117.7 203.56 203.87 0 0 1 203.56 0 67.85 67.956 0 0 1 0 117.7 203.56 203.87 0 0 1-203.56 0z"/>
  <path d="m68.869 171.36a78.095 78.255 0 0 1 0-135.54 234.29 234.77 0 0 1 234.29 0 78.095 78.255 0 0 1 0 135.54 234.29 234.77 0 0 1-234.29 0z"/>
 </g>
 <path d="m17.514 98.669h-12.393v157.46h154.75" fill="none" marker-end="url(#TriangleOutM)" stroke="currentColor" stroke-width="2"/>
</svg>
